<?xml version="1.0" encoding="utf-8"?>
<!-- Generator: Adobe Illustrator 18.1.1, SVG Export Plug-In . SVG Version: 6.00 Build 0)  -->
<!DOCTYPE svg PUBLIC "-//W3C//DTD SVG 1.1//EN" "http://www.w3.org/Graphics/SVG/1.1/DTD/svg11.dtd">
<svg version="1.1" xmlns="http://www.w3.org/2000/svg" xmlns:xlink="http://www.w3.org/1999/xlink" x="0px" y="0px" width="10px"
	 height="10px" viewBox="0 0 10 10" style="enable-background:new 0 0 10 10;" xml:space="preserve">
<g id="Layer_1">
</g>
<g id="Layer_2">
</g>
<g id="Layer_3">
</g>
<g id="Layer_4">
	<path d="M6.4,5l3.3-3.3c0.4-0.4,0.4-1,0-1.4s-1-0.4-1.4,0L5,3.6L1.7,0.3c-0.4-0.4-1-0.4-1.4,0s-0.4,1,0,1.4L3.6,5L0.3,8.3
		c-0.4,0.4-0.4,1,0,1.4C0.5,9.9,0.7,10,1,10s0.5-0.1,0.7-0.3L5,6.4l3.3,3.3C8.5,9.9,8.7,10,9,10s0.5-0.1,0.7-0.3
		c0.4-0.4,0.4-1,0-1.4L6.4,5z"/>
</g>
</svg>
