<svg width="25" height="25" viewBox="0 0 25 25" xmlns="http://www.w3.org/2000/svg">
  <path d="M12.5 25C5.596 25 0 19.404 0 12.5S5.596 0 12.5 0 25 5.596 25 12.5 19.404 25 12.5 25zm-2.142-6.337c5.23 0 8.09-4.333 8.09-8.09 0-.123-.002-.246-.008-.367.555-.402 1.038-.903 1.42-1.473-.51.227-1.06.38-1.634.448.587-.35 1.038-.9 1.25-1.57-.55.33-1.158.57-1.805.69-.51-.55-1.25-.9-2.07-.9-1.57 0-2.84 1.28-2.84 2.85 0 .225.026.44.074.65-2.363-.117-4.46-1.25-5.86-2.97-.245.42-.385.91-.385 1.43 0 .986.5 1.857 1.265 2.367-.467-.015-.905-.143-1.29-.356v.037c0 1.378.98 2.528 2.28 2.79-.236.064-.49.1-.75.1-.18 0-.36-.02-.532-.053.363 1.13 1.413 1.953 2.658 1.976-.972.763-2.2 1.22-3.53 1.22-.23 0-.455-.016-.68-.04 1.26.804 2.755 1.275 4.36 1.275z" fill-rule="evenodd"/>
</svg>
