<svg xmlns="http://www.w3.org/2000/svg" viewBox="0 0 76 70">
  <defs>
    <style>.cls-1{fill:#cccccb;}.cls-2{opacity:0.3;}.cls-3{fill:none;}</style>
  </defs>
  <title>Asset 5</title>
  <g id="Layer_2" data-name="Layer 2">
    <g id="Layer_2-2" data-name="Layer 2">
      <path class="cls-1" d="M71.69,0H36.92a4.42,4.42,0,0,0-4.31,4.52V26a4.42,4.42,0,0,0,4.31,4.52h5.71v5.05a2.74,2.74,0,0,0,1.65,2.54,2.47,2.47,0,0,0,1,.22,2.58,2.58,0,0,0,1.76-.71l7.79-7.1H71.69A4.42,4.42,0,0,0,76,26V4.52A4.42,4.42,0,0,0,71.69,0ZM74,26a2.42,2.42,0,0,1-2.31,2.52H54.08L45.7,36.11a.56.56,0,0,1-.63.13.75.75,0,0,1-.44-.72V28.47H36.92A2.43,2.43,0,0,1,34.61,26V4.52A2.43,2.43,0,0,1,36.92,2H71.69A2.42,2.42,0,0,1,74,4.52Z"/>
      <g class="cls-2">
        <rect class="cls-1" x="39.87" y="9.18" width="28.88" height="2" rx="1" ry="1" transform="translate(108.61 20.37) rotate(-180)"/>
      </g>
      <g class="cls-2">
        <rect class="cls-1" x="39.87" y="18.02" width="28.88" height="2" rx="1" ry="1" transform="translate(108.61 38.03) rotate(-180)"/>
      </g>
      <g class="cls-2">
        <path class="cls-1" d="M3.18,25.71C1.56,29.24.37,36.34,8.05,47l.06.09c1,1.67,3.24,4.31,6.78,7.84l.27.28.15.15c3.43,3.4,6,5.63,7.69,6.58l.08,0c15.59,11.19,23.62,3.51,24,3.18a11.74,11.74,0,0,0,.93-1.1C19.49,63,5.82,32.37,3.18,25.71Z"/>
      </g>
      <path class="cls-1" d="M56,53.65a1.06,1.06,0,0,0-.93-.7c-.58-.1-4-1.54-6.42-2.59-5-2.1-6.49-2.71-7.09-2.74s-1.81.3-6.05,4.51c-1.2-.42-5-3.25-8.93-6.74-2.62-2.93-6.27-7.5-6.75-8.89,3.81-3.83,4.56-5.16,4.53-6,0-.6-.65-2.12-2.75-7C20.56,21,19.11,17.57,19,17.05a1.13,1.13,0,0,0-.74-1c-1.47-.58-12.53,3.36-14.83,5.65h0c-.38.38-9.21,9.53,3,26.41,1.06,1.81,3.3,4.43,6.89,8l.24.24.12.12.09.08c3.68,3.66,6.37,6,8.22,7C28.8,68.52,34.37,70,38.62,70c6.24,0,9.59-3.21,9.82-3.44C49.43,65.57,56.71,55.49,56,53.65Zm-8,10.4a11.74,11.74,0,0,1-.93,1.1c-.33.33-8.36,8-24-3.18l-.08,0c-1.66-1-4.26-3.18-7.69-6.58l-.15-.15-.27-.28c-3.54-3.53-5.82-6.17-6.78-7.84L8.05,47C.37,36.34,1.56,29.24,3.18,25.71a9.47,9.47,0,0,1,1.68-2.6c1.56-1.54,10-4.73,12.36-5.13.32,1,1.07,2.75,2.56,6.23,1,2.39,2.41,5.64,2.57,6.3-.11.3-.74,1.39-4.18,4.84-.52.51-1.73,1.72,7,11.41l.1.1C35,55.45,36,54.41,36.67,53.79c3.42-3.42,4.54-4,4.84-4.16.77.2,4,1.56,6.35,2.57,3.24,1.37,5,2.11,6,2.46A68.22,68.22,0,0,1,48,64.05Z"/>
    </g>
  </g>
</svg>
