<?xml version="1.0" encoding="utf-8"?>
<!-- Generator: Adobe Illustrator 18.1.1, SVG Export Plug-In . SVG Version: 6.00 Build 0)  -->
<!DOCTYPE svg PUBLIC "-//W3C//DTD SVG 1.1//EN" "http://www.w3.org/Graphics/SVG/1.1/DTD/svg11.dtd">
<svg version="1.1" xmlns="http://www.w3.org/2000/svg" xmlns:xlink="http://www.w3.org/1999/xlink" x="0px" y="0px" width="60px"
	 height="13.9px" viewBox="0 0 60 13.9" style="enable-background:new 0 0 60 13.9;" xml:space="preserve">
<g id="Layer_1">
</g>
<g id="Layer_2">
</g>
<g id="Layer_3">
</g>
<g id="Layer_4">
	<g>
		<path d="M11.9,7.9c-0.6,0.3-1.2,0.5-1.9,0.5c-0.4,0-0.8-0.1-1.2-0.2c-0.6,0.6-1.3,1-1.6,1.2c0.5,0.8,1.3,1.4,2.3,1.6
			c0.3,0.1,0.6,0.1,0.9,0.1c0.7,0,1.3-0.2,1.8-0.5c0.1-0.3,0.1-0.6,0.1-1C12.4,9,12.2,8.4,11.9,7.9z"/>
		<path d="M11.3,3.2c0,0-0.1,0-0.1,0l0,0C11.2,3.2,11.2,3.2,11.3,3.2z"/>
		<path d="M11.1,3.2C11,4,10.7,4.6,10.3,5.1c0,0.1,0,0.3,0,0.4c0,0.9-0.5,1.6-1,2.2c0.2,0,0.3,0,0.5,0c0.8,0,1.6-0.3,2.3-0.8
			c0.8-0.6,1.3-1.5,1.4-2.4c-0.5-0.7-1.3-1.2-2.2-1.4C11.2,3.2,11.2,3.2,11.1,3.2L11.1,3.2z"/>
		<path d="M10.6,2.6c0-1-0.4-1.9-1-2.6c0,0,0,0-0.1,0C8.6,0,7.8,0.3,7.1,1C7.8,1.7,8,2.6,8,3.5c0,0.1,0,0.1,0,0.2
			c0.2,0,0.3-0.1,0.5-0.1c0,0,0,0,0,0C9.1,3.7,9.7,4,10,4.5C10.4,3.9,10.6,3.3,10.6,2.6z"/>
		<path d="M3.8,0.1c-0.1,0-0.1,0-0.1,0c-0.6,0.7-1,1.5-1,2.5c0,0,0,0,0,0c0,0,0.1,0,0.1,0c1,0,2,0.4,2.6,1.1C6,3.7,6.6,4,6.9,4.6
			C7.1,4.3,7.3,4,7.6,3.9c0,0,0-0.1,0-0.1c0-1-0.4-2.1-1.3-2.8C5.6,0.4,4.7,0.1,3.8,0.1z"/>
		<polygon points="5,3.7 5,3.7 5,3.7 		"/>
		<path d="M4.9,3.7C4.3,3.4,3.7,3.2,3,3.2c-0.2,0-0.4,0-0.7,0.1C1.4,3.4,0.5,4,0,4.7c0.1,0.9,0.6,1.7,1.4,2.3
			c0.6-0.7,1.3-1.2,2.2-1.4c0,0,0-0.1,0-0.1C3.5,4.5,4.2,3.9,4.9,3.7z"/>
		<path d="M1.6,7.9C1.3,8.5,1.2,9.1,1.2,9.6c0,0.4,0,0.7,0.1,1c0.5,0.3,1.2,0.5,1.8,0.5c0.3,0,0.6,0,0.9-0.1c-0.1-0.3-0.1-0.7-0.1-1
			c0-0.8,0.3-1.6,0.7-2.2c-0.4-0.5-0.8-1-0.9-1.6C2.8,6.5,2.1,7.1,1.6,7.9z"/>
		<rect x="4.7" y="11.4" width="0" height="0"/>
		<path d="M6.8,13.3c0.8-0.4,1.5-1,1.9-1.9c-1-0.4-1.7-1.1-2-2C6.4,9.2,5.6,8.8,4.9,8.1C4.6,8.7,4.5,9.2,4.5,9.8
			c0,0.5,0.1,1,0.3,1.5C5.2,12.3,5.9,12.9,6.8,13.3z"/>
		<polygon points="4.8,11.3 4.8,11.4 4.8,11.4 		"/>
		<path d="M18.8,8.8l-3.3,3.8h2.8c0.3,0,0.5,0.2,0.5,0.6c0,0.3-0.2,0.6-0.5,0.6h-4.1c-0.3,0-0.6-0.3-0.6-0.6c0-0.1,0.1-0.3,0.1-0.4
			l3.2-3.8h-2.8c-0.3,0-0.6-0.3-0.6-0.6c0-0.3,0.3-0.5,0.6-0.5h4c0.4,0,0.6,0.3,0.6,0.6C18.9,8.5,18.9,8.6,18.8,8.8z"/>
		<path d="M25.3,11.1c0,0,0,0-4.2,0c0.1,0.9,0.8,1.6,1.8,1.6c0.7,0,1.3-0.3,1.8-0.8c0.1-0.1,0.2-0.1,0.3-0.1c0.2,0,0.3,0.1,0.4,0.2
			c0.1,0.1,0.1,0.2,0.1,0.3c0,0.2-0.1,0.3-0.2,0.4c-0.6,0.6-1.6,1-2.5,1c-1.7,0-3.1-1.4-3.1-3.1s1.4-3.1,3.1-3.1c1.7,0,3,1.3,3,3.1
			C25.8,11,25.6,11.1,25.3,11.1z M22.8,8.7c-0.9,0-1.5,0.6-1.7,1.5c2.1,0,3.4,0,3.4,0C24.4,9.4,23.7,8.7,22.8,8.7z"/>
		<path d="M39.3,13.8c-0.4,0-0.7-0.3-0.7-0.7v-0.3c-0.4,0.7-1.1,1-2,1c-1.7,0-3-1.3-3-3.1c0-1.8,1.2-3.1,3-3.1c0.9,0,1.6,0.4,2,1.1
			V5.1c0-0.4,0.3-0.7,0.7-0.7c0.4,0,0.7,0.3,0.7,0.7v8C40,13.5,39.7,13.8,39.3,13.8z M36.9,8.8c-1.1,0-1.8,0.9-1.8,1.9
			c0,1.1,0.7,2,1.8,2c1.1,0,1.8-0.8,1.8-2C38.7,9.6,38,8.8,36.9,8.8z"/>
		<path d="M46.8,11.1c0,0,0,0-4.2,0c0.1,0.9,0.8,1.6,1.8,1.6c0.7,0,1.3-0.3,1.8-0.8c0.1-0.1,0.2-0.1,0.3-0.1c0.2,0,0.3,0.1,0.4,0.2
			c0.1,0.1,0.1,0.2,0.1,0.3c0,0.2-0.1,0.3-0.2,0.4c-0.6,0.6-1.6,1-2.5,1c-1.7,0-3.1-1.4-3.1-3.1s1.4-3.1,3.1-3.1c1.7,0,3,1.3,3,3.1
			C47.3,11,47.1,11.1,46.8,11.1z M44.3,8.7c-0.9,0-1.6,0.6-1.7,1.5c2.1,0,3.4,0,3.4,0C45.9,9.4,45.2,8.7,44.3,8.7z"/>
		<path d="M50.7,13.9c-0.7,0-1.5-0.2-2.2-0.6c-0.2-0.1-0.3-0.3-0.3-0.5c0-0.1,0-0.1,0.1-0.2c0.1-0.2,0.2-0.3,0.4-0.3
			c0.1,0,0.2,0,0.3,0.1c0.5,0.3,1.1,0.5,1.7,0.5c0.7,0,1.4-0.2,1.4-0.7c0-0.4-0.4-0.6-1.8-1c-1.2-0.4-1.8-0.9-1.8-1.8
			c0-1,1-1.7,2.3-1.7c0.9,0,1.5,0.2,2.1,0.5c0.2,0.1,0.4,0.3,0.4,0.5c0,0.1,0,0.1,0,0.2c-0.1,0.2-0.3,0.4-0.5,0.4
			c-0.1,0-0.1,0-0.2,0c-0.5-0.2-1-0.4-1.6-0.4c-0.7,0-1.2,0.2-1.2,0.6c0,0.4,0.4,0.5,1.4,0.9c1.3,0.4,2.1,0.8,2.1,1.9
			C53.3,13,52.3,13.9,50.7,13.9z"/>
		<path d="M59.4,13.8c-0.2,0-0.4-0.1-0.5-0.2L56.7,11L56,11.6v1.6c0,0.4-0.3,0.7-0.7,0.7c-0.4,0-0.7-0.3-0.7-0.7v-8
			c0-0.4,0.3-0.7,0.7-0.7c0.4,0,0.7,0.3,0.7,0.7V10l2.9-2.2c0.1-0.1,0.2-0.1,0.4-0.1c0.2,0,0.4,0.1,0.5,0.2c0.1,0.1,0.2,0.2,0.2,0.4
			c0,0.2-0.1,0.4-0.2,0.5l-1.9,1.5l2.2,2.5c0.1,0.1,0.1,0.3,0.1,0.4C60,13.5,59.7,13.8,59.4,13.8z"/>
		<path d="M29.8,7.6c-1.6,0-2.8,1.2-2.8,2.8v2.8c0,0.4,0.3,0.7,0.7,0.7c0.4,0,0.7-0.3,0.7-0.7v-2.8c0-0.9,0.5-1.6,1.5-1.7
			c1,0,1.5,0.7,1.5,1.7v2.8c0,0.4,0.3,0.7,0.7,0.7c0.4,0,0.7-0.3,0.7-0.7v-2.8C32.6,8.8,31.4,7.6,29.8,7.6z"/>
	</g>
</g>
</svg>
