<?xml version="1.0" encoding="UTF-8"?>
<svg width="48px" height="48px" viewBox="0 0 48 48" version="1.1" xmlns="http://www.w3.org/2000/svg" xmlns:xlink="http://www.w3.org/1999/xlink">
    <!-- Generator: Sketch 46.2 (44496) - http://www.bohemiancoding.com/sketch -->
    <title>icon-reopened</title>
    <desc>Created with Sketch.</desc>
    <defs></defs>
    <g id="Screens" stroke="none" stroke-width="1" fill="none" fill-rule="evenodd">
        <g id="All" transform="translate(-262.000000, -522.000000)">
            <g id="Widget-05-Desktop" transform="translate(96.000000, 482.000000)">
                <g id="icon-reopened" transform="translate(166.000000, 40.000000)">
                    <g id="Group">
                        <circle id="Oval-3" stroke="#78A300" stroke-width="2" cx="24" cy="24" r="23"></circle>
                        <g id="icon-open" transform="translate(14.000000, 15.000000)">
                            <g id="Email" transform="translate(0.000000, 4.000000)" fill-rule="nonzero" fill="#78A300">
                                <path d="M1.55438102,3.51764121 L9.81333333,9.078 C9.92610524,9.14660296 10.0738948,9.14660296 10.1866667,9.078 L18.4804794,3.49347171 L16.4930103,2.34600587 C16.2538639,2.20793469 16.1719264,1.90213948 16.3099976,1.66299317 L16.3099976,1.66299317 C16.4480687,1.42384686 16.7538639,1.34190928 16.9930103,1.47998047 L19.5910865,2.97998047 C19.6301682,3.0025443 19.6650514,3.02958748 19.6954619,3.0600871 C19.8709627,3.14015124 20,3.29387842 20,3.49 L20,3.491 L20,13.018 C20,13.558 19.4744444,14 18.8333333,14 L1.16666667,14 C0.525555556,14 0,13.558 0,13.018 L0,3.49 C0,3.24846763 0.195711024,3.07123489 0.432672319,3.01670793 C0.451618492,3.00171867 0.471886403,2.98791923 0.49343014,2.97548095 L0.49343014,2.97548095 L3.09150635,1.47548095 C3.33065266,1.33740976 3.63644787,1.41934734 3.77451905,1.65849365 L3.77451905,1.65849365 C3.91259024,1.89763996 3.83065266,2.20343516 3.59150635,2.34150635 L1.55438102,3.51764121 Z M6.75,0 L13.25,0 C13.6642136,-7.6089797e-17 14,0.335786438 14,0.75 L14,0.75 C14,1.16421356 13.6642136,1.5 13.25,1.5 L6.75,1.5 C6.33578644,1.5 6,1.16421356 6,0.75 L6,0.75 L6,0.75 C6,0.335786438 6.33578644,7.6089797e-17 6.75,0 Z M6.75,3 L13.25,3 C13.6642136,3 14,3.33578644 14,3.75 C14,4.16421356 13.6642136,4.5 13.25,4.5 L6.75,4.5 C6.33578644,4.5 6,4.16421356 6,3.75 C6,3.33578644 6.33578644,3 6.75,3 Z" id="Combined-Shape"></path>
                            </g>
                            <path d="M3.75,15.25 L16.25,15.25 L16.25,1.52380952 C16.25,1.08640355 15.9409292,0.75 15.6,0.75 L4.4,0.75 C4.05907076,0.75 3.75,1.08640355 3.75,1.52380952 L3.75,15.25 Z" id="Combined-Shape" stroke="#78A300" stroke-width="1.5"></path>
                        </g>
                    </g>
                </g>
            </g>
        </g>
    </g>
</svg>