<?xml version="1.0" encoding="utf-8"?>
<!-- Generator: Adobe Illustrator 19.2.0, SVG Export Plug-In . SVG Version: 6.00 Build 0)  -->
<!DOCTYPE svg PUBLIC "-//W3C//DTD SVG 1.1//EN" "http://www.w3.org/Graphics/SVG/1.1/DTD/svg11.dtd">
<svg version="1.1" id="Layer_1" xmlns="http://www.w3.org/2000/svg" xmlns:xlink="http://www.w3.org/1999/xlink" x="0px" y="0px"
	 width="16px" height="14px" viewBox="0 0 16 14" style="enable-background:new 0 0 16 14;" xml:space="preserve">
<style type="text/css">
	.st0{clip-path:url(#SVGID_2_);}
	.st1{clip-path:url(#SVGID_4_);}
	.st2{clip-path:url(#SVGID_6_);}
	.st3{clip-path:url(#SVGID_8_);}
	.st4{clip-path:url(#SVGID_10_);}
	.st5{clip-path:url(#SVGID_12_);}
</style>
<g>
	<defs>
		<path id="SVGID_1_" d="M-102.9,3l-16.3,16.3c-1.9,1.9-1.9,5.1,0,7.1c1.9,1.9,5.1,1.9,7.1,0l4-4l12.3-12.3c0.4-0.4,0.4-1,0-1.4
			c-0.4-0.4-1-0.4-1.4,0l-16.3,16.3c-1.2,1.2-3.1,1.2-4.2,0c-1.2-1.2-1.2-3.1,0-4.2l16.3-16.3c2.7-2.7,7.2-2.7,9.9,0s2.7,7.2,0,9.9
			l-16.3,16.3c-4.3,4.3-11.3,4.3-15.6,0c-4.3-4.3-4.3-11.3,0-15.6l7.8-7.8c0.4-0.4,0.4-1,0-1.4c-0.4-0.4-1-0.4-1.4,0l-7.8,7.8
			c-5.1,5.1-5.1,13.3,0,18.4c5.1,5.1,13.3,5.1,18.4,0l16.3-16.3c3.5-3.5,3.5-9.2,0-12.7C-93.7-0.5-99.4-0.5-102.9,3z"/>
	</defs>
	<clipPath id="SVGID_2_">
		<use xlink:href="#SVGID_1_"  style="overflow:visible;"/>
	</clipPath>
	<g class="st0">
		<defs>
			<rect id="SVGID_3_" x="-502" y="-217" width="1167" height="466"/>
		</defs>
		<clipPath id="SVGID_4_">
			<use xlink:href="#SVGID_3_"  style="overflow:visible;"/>
		</clipPath>
	</g>
</g>
<g>
	<g>
		<g>
			<defs>
				<path id="SVGID_9_" d="M14.7,1.4C13.4,0,11.1,0,9.8,1.4L8,3.2L5.5,5.6L4.5,6.7c-0.8,0.8-0.8,2,0,2.8c0.8,0.8,2,0.8,2.8,0
					l5.3-5.3c0.2-0.2,0.2-0.5,0-0.7c-0.2-0.2-0.5-0.2-0.7,0L6.6,8.8c-0.4,0.4-1,0.4-1.4,0s-0.4-1,0-1.4l1.1-1.1l2.5-2.5l1.8-1.8
					c1-1,2.6-1,3.5,0c1,1,1,2.6,0,3.5l-1.1,1.1l-0.4,0.4l-3.9,3.9c-1.6,1.6-4.1,1.6-5.7,0s-1.6-4.1,0-5.7l3.9-3.9
					c0.2-0.2,0.2-0.5,0-0.7c-0.2-0.2-0.5-0.2-0.7,0L2.3,4.6c-1.9,1.9-1.9,5.1,0,7.1s5.1,1.9,7.1,0l3.9-3.9l0.4-0.4l1.1-1.1
					C16.1,5,16.1,2.8,14.7,1.4"/>
			</defs>
			<clipPath id="SVGID_6_">
				<use xlink:href="#SVGID_9_"  style="overflow:visible;"/>
			</clipPath>
			<g class="st2">
				<defs>
					<rect id="SVGID_11_" x="0.8" y="-0.2" width="15" height="14"/>
				</defs>
				<clipPath id="SVGID_8_">
					<use xlink:href="#SVGID_11_"  style="overflow:visible;"/>
				</clipPath>
				<rect x="-5" y="-4" transform="matrix(0.7071 -0.7071 0.7071 0.7071 -1.8995 7.4142)" class="st3" width="26" height="20"/>
			</g>
		</g>
	</g>
</g>
</svg>
