<svg xmlns="http://www.w3.org/2000/svg" width="19" height="19" viewBox="0 0 18 18">
  <path fill="#000" stroke="none" stroke-width="1" d="M0.9177,2.5222 C1.4787,1.9622 4.8997,0.6902 4.9127,0.9872 C4.9257,1.2832 6.4377,4.5692 6.4517,4.8652 C6.4647,5.1612 5.4537,6.1712 5.1587,6.4672 C4.8657,6.7602 7.1347,9.3242 7.1777,9.3722 C7.2267,9.4152 9.7907,11.6842 10.0837,11.3922 C10.3787,11.0962 11.3887,10.0862 11.6847,10.0992 C11.9817,10.1122 15.2677,11.6242 15.5637,11.6372 C15.8597,11.6512 14.0377,14.5212 13.4777,15.0822 C12.9987,15.5602 10.5177,17.2992 6.2047,14.1942 C5.7317,13.9222 4.9817,13.2982 3.8457,12.1632 C3.8447,12.1622 3.8447,12.1612 3.8447,12.1612 C3.8427,12.1602 3.8427,12.1592 3.8417,12.1582 C3.8407,12.1572 3.8397,12.1572 3.8387,12.1562 C3.8387,12.1552 3.8377,12.1542 3.8367,12.1532 C2.7007,11.0172 2.0777,10.2682 1.8057,9.7952 C-1.2993,5.4822 0.4397,3.0012 0.9177,2.5222 Z" transform="translate(2 1)"/>
</svg>
