<svg id="Layer_1" data-name="Layer 1" xmlns="http://www.w3.org/2000/svg" viewBox="0 0 15 18"><path d="M13,2V16H2V2H13m1-2H1A1,1,0,0,0,0,1V17a1,1,0,0,0,1,1H14a1,1,0,0,0,1-1V1a1,1,0,0,0-1-1h0Z" transform="translate(0 0)"/><path d="M11,9a1,1,0,0,1-1,1H5A1,1,0,0,1,4,9H4A1,1,0,0,1,5,8h5a1,1,0,0,1,1,1h0Z" transform="translate(0 0)"/><path d="M8,5A1,1,0,0,1,7,6H5A1,1,0,0,1,4,5H4A1,1,0,0,1,5,4H7A1,1,0,0,1,8,5H8Z" transform="translate(0 0)"/><path d="M11,13a1,1,0,0,1-1,1H5a1,1,0,0,1-1-1H4a1,1,0,0,1,1-1h5a1,1,0,0,1,1,1h0Z" transform="translate(0 0)"/></svg>
