<svg xmlns="http://www.w3.org/2000/svg" viewBox="0 0 15.33 18"><defs><style>.cls-1{fill:#fff;}</style></defs><title>Asset 3 1</title><g id="Layer_2" data-name="Layer 2"><g id="Layer_1-2" data-name="Layer 1"><path class="cls-1" d="M14,18H1.3A1.3,1.3,0,0,1,0,16.7V1.3A1.3,1.3,0,0,1,1.3,0H14a1.3,1.3,0,0,1,1.3,1.3V16.7A1.3,1.3,0,0,1,14,18ZM2,16H13.33V2H2Z"/><path class="cls-1" d="M8.17,4.19h-3a1,1,0,0,0,0,2h3a1,1,0,0,0,0-2Z"/><path class="cls-1" d="M10.17,8.19h-5a1,1,0,0,0,0,2h5a1,1,0,0,0,0-2Z"/><path class="cls-1" d="M10.17,12.19h-5a1,1,0,0,0,0,2h5a1,1,0,0,0,0-2Z"/></g></g></svg>