<?xml version="1.0" encoding="utf-8"?>
<svg version="1.1" id="Layer_1" xmlns="http://www.w3.org/2000/svg" xmlns:xlink="http://www.w3.org/1999/xlink" x="0px" y="0px"
	 viewBox="0 0 16 14" style="enable-background:new 0 0 16 14;" xml:space="preserve">
<style type="text/css">
	.st0{fill:#999;}
</style>
<path class="st0" d="M14.7,1.4C13.4,0,11.1,0,9.8,1.4L8,3.2L5.5,5.6l-1,1.1c-0.8,0.8-0.8,2,0,2.8s2,0.8,2.8,0l5.3-5.3
	c0.2-0.2,0.2-0.5,0-0.7s-0.5-0.2-0.7,0L6.6,8.8c-0.4,0.4-1,0.4-1.4,0s-0.4-1,0-1.4l1.1-1.1l2.5-2.5L10.6,2c1-1,2.6-1,3.5,0
	c1,1,1,2.6,0,3.5L13,6.6L12.6,7l-3.9,3.9c-1.6,1.6-4.1,1.6-5.7,0S1.4,6.8,3,5.2l3.9-3.9c0.2-0.2,0.2-0.5,0-0.7s-0.5-0.2-0.7,0
	l-3.9,4c-1.9,1.9-1.9,5.1,0,7.1s5.1,1.9,7.1,0l3.9-3.9l0.4-0.4l1.1-1.1C16.1,5,16.1,2.8,14.7,1.4"/>
</svg>
