<?xml version="1.0" encoding="UTF-8" standalone="no"?>
<svg width="42px" height="37px" viewBox="0 0 42 37" version="1.1" xmlns="http://www.w3.org/2000/svg" xmlns:xlink="http://www.w3.org/1999/xlink" xmlns:sketch="http://www.bohemiancoding.com/sketch/ns">
    <!-- Generator: sketchtool 3.5.2 (25235) - http://www.bohemiancoding.com/sketch -->
    <title>Page 1</title>
    <desc>Created with sketchtool.</desc>
    <defs></defs>
    <g id="flow-B" stroke="none" stroke-width="1" fill="none" fill-rule="evenodd" sketch:type="MSPage">
        <g id="widget-attachments-3" sketch:type="MSArtboardGroup" transform="translate(-1155.000000, -674.000000)" fill="#999999">
            <g id="Shape-+-Drop-here" sketch:type="MSLayerGroup" transform="translate(1130.000000, 665.000000)">
                <path d="M49,3 C44.038,3 40,7.038 40,12 L40,35 C40,37.757 42.243,40 45,40 C47.757,40 50,37.757 50,35 L50,12 C50,11.448 49.552,11 49,11 C48.448,11 48,11.448 48,12 L48,35 C48,36.654 46.654,38 45,38 C43.346,38 42,36.654 42,35 L42,12 C42,8.14 45.14,5 49,5 C52.86,5 56,8.14 56,12 L56,35 C56,41.065 51.065,46 45,46 C38.935,46 34,41.065 34,35 L34,24 C34,23.448 33.552,23 33,23 C32.448,23 32,23.448 32,24 L32,35 C32,42.168 37.832,48 45,48 C52.168,48 58,42.168 58,35 L58,12 C58,7.038 53.962,3 49,3" id="Page-1" sketch:type="MSShapeGroup" transform="translate(45.000000, 25.500000) rotate(-315.000000) translate(-45.000000, -25.500000) "></path>
            </g>
        </g>
    </g>
</svg>