<?xml version="1.0" encoding="utf-8"?>
<!-- Generator: Adobe Illustrator 18.1.1, SVG Export Plug-In . SVG Version: 6.00 Build 0)  -->
<!DOCTYPE svg PUBLIC "-//W3C//DTD SVG 1.1//EN" "http://www.w3.org/Graphics/SVG/1.1/DTD/svg11.dtd">
<svg version="1.1" xmlns="http://www.w3.org/2000/svg" xmlns:xlink="http://www.w3.org/1999/xlink" x="0px" y="0px" width="8px"
	 height="8px" viewBox="0 0 8 8" style="enable-background:new 0 0 8 8;" xml:space="preserve">
<g id="Layer_1">
</g>
<g id="Layer_2">
</g>
<g id="Layer_3">
</g>
<g id="Layer_4">
	<path d="M7.9,0.6C7.8,0.4,7.6,0.2,7.4,0.1C7.3,0,7.1,0,7,0H2C1.4,0,1,0.4,1,1s0.4,1,1,1h2.6L0.3,6.3c-0.4,0.4-0.4,1,0,1.4
		C0.5,7.9,0.7,8,1,8s0.5-0.1,0.7-0.3L6,3.4V6c0,0.6,0.4,1,1,1s1-0.4,1-1V1C8,0.9,8,0.7,7.9,0.6z"/>
</g>
</svg>
