<?xml version="1.0" encoding="utf-8"?>
<!-- Generator: Adobe Illustrator 18.1.1, SVG Export Plug-In . SVG Version: 6.00 Build 0)  -->
<!DOCTYPE svg PUBLIC "-//W3C//DTD SVG 1.1//EN" "http://www.w3.org/Graphics/SVG/1.1/DTD/svg11.dtd">
<svg version="1.1" xmlns="http://www.w3.org/2000/svg" xmlns:xlink="http://www.w3.org/1999/xlink" x="0px" y="0px" width="13px"
	 height="10px" viewBox="0 0 13 10" style="enable-background:new 0 0 13 10;" xml:space="preserve">
<g id="Layer_1">
</g>
<g id="Layer_2">
</g>
<g id="Layer_3">
</g>
<g id="Layer_4">
	<path d="M12,4H3.4l2.3-2.3c0.4-0.4,0.4-1,0-1.4s-1-0.4-1.4,0l-4,4C0.2,4.4,0.1,4.5,0.1,4.6C0,4.9,0,5.1,0.1,5.4
		c0.1,0.1,0.1,0.2,0.2,0.3l4,4C4.5,9.9,4.7,10,5,10s0.5-0.1,0.7-0.3c0.4-0.4,0.4-1,0-1.4L3.4,6H12c0.6,0,1-0.4,1-1S12.6,4,12,4z"/>
</g>
</svg>
