 <?xml version="1.0" encoding="utf-8"?>
<!-- Generator: Adobe Illustrator 19.2.0, SVG Export Plug-In . SVG Version: 6.00 Build 0)  -->
<!DOCTYPE svg PUBLIC "-//W3C//DTD SVG 1.1//EN" "http://www.w3.org/Graphics/SVG/1.1/DTD/svg11.dtd">
<svg version="1.1" id="Layer_1" xmlns="http://www.w3.org/2000/svg" xmlns:xlink="http://www.w3.org/1999/xlink" x="0px" y="0px"
	 width="43px" height="37px" viewBox="0 0 43 37" style="enable-background:new 0 0 43 37;" xml:space="preserve">
<style type="text/css">
	.st0{clip-path:url(#SVGID_2_);}
	.st1{clip-path:url(#SVGID_4_);}
	.st2{clip-path:url(#SVGID_6_);}
	.st3{clip-path:url(#SVGID_8_);}
	.st4{clip-path:url(#SVGID_10_);}
	.st5{clip-path:url(#SVGID_12_);}
</style>
<g>
	<defs>
		<path id="SVGID_1_" d="M27.1,3L10.8,19.3c-1.9,1.9-1.9,5.1,0,7.1c1.9,1.9,5.1,1.9,7.1,0l4-4l12.3-12.3c0.4-0.4,0.4-1,0-1.4
			c-0.4-0.4-1-0.4-1.4,0L16.5,24.9c-1.2,1.2-3.1,1.2-4.2,0c-1.2-1.2-1.2-3.1,0-4.2L28.5,4.4c2.7-2.7,7.2-2.7,9.9,0
			c2.7,2.7,2.7,7.2,0,9.9L22.2,30.6c-4.3,4.3-11.3,4.3-15.6,0S2.3,19.3,6.6,15l7.8-7.8c0.4-0.4,0.4-1,0-1.4c-0.4-0.4-1-0.4-1.4,0
			l-7.8,7.8c-5.1,5.1-5.1,13.3,0,18.4s13.3,5.1,18.4,0l16.3-16.3c3.5-3.5,3.5-9.2,0-12.7C36.3-0.5,30.6-0.5,27.1,3z"/>
	</defs>
	<clipPath id="SVGID_2_">
		<use xlink:href="#SVGID_1_"  style="overflow:visible;"/>
	</clipPath>
	<g class="st0">
		<defs>
			<rect id="SVGID_3_" x="-372" y="-217" width="1167" height="466"/>
		</defs>
		<clipPath id="SVGID_4_">
			<use xlink:href="#SVGID_3_"  style="overflow:visible;"/>
		</clipPath>
		<rect x="-6.4" y="-1.9" transform="matrix(0.7071 -0.7071 0.7071 0.7071 -5.2053 19.6378)" class="st1" width="55" height="36"/>
	</g>
</g>
</svg>
