<svg id="Layer_1" data-name="Layer 1" xmlns="http://www.w3.org/2000/svg" xmlns:xlink="http://www.w3.org/1999/xlink" viewBox="0 0 15.75 15.75"><defs><style>.cls-1{fill:#fff;}</style><mask id="mask" x="0" y="13.5" width="15.75" height="2.25" maskUnits="userSpaceOnUse"><g transform="translate(-10.13 -10.12)"><g id="concierge-fill-b"><polygon id="concierge-fill-a" class="cls-1" points="10.13 23.63 25.88 23.63 25.88 25.88 10.13 25.88 10.13 23.63"/></g></g></mask></defs><title>concierge</title><g><path d="M24.75,23.62H11.25a1.13,1.13,0,0,0-1.12,1.13v1.12H25.88V24.75a1.14,1.14,0,0,0-1.13-1.13" transform="translate(-10.13 -10.12)"/></g><path d="M11.35,21.37h13.3a1.12,1.12,0,0,0,1.12-1.27,7.86,7.86,0,0,0-6.65-6.51V12.37h1.13a1.13,1.13,0,1,0,0-2.25h-4.5a1.13,1.13,0,1,0,0,2.25h1.13v1.22a7.86,7.86,0,0,0-6.65,6.51,1.12,1.12,0,0,0,1.12,1.27" transform="translate(-10.13 -10.12)"/></svg>
