<?xml version="1.0" encoding="utf-8"?>
<svg version="1.1" id="Layer_1" xmlns="http://www.w3.org/2000/svg" xmlns:xlink="http://www.w3.org/1999/xlink" x="0px" y="0px"
	 viewBox="0 0 43 37" style="enable-background:new 0 0 43 37;" xml:space="preserve">
<style type="text/css">
	.st0{fill:#999;}
</style>
<path class="st0" d="M27.1,3L10.8,19.3c-1.9,1.9-1.9,5.1,0,7.1c1.9,1.9,5.1,1.9,7.1,0l4-4l12.3-12.3c0.4-0.4,0.4-1,0-1.4
	s-1-0.4-1.4,0L16.5,24.9c-1.2,1.2-3.1,1.2-4.2,0c-1.2-1.2-1.2-3.1,0-4.2L28.5,4.4c2.7-2.7,7.2-2.7,9.9,0s2.7,7.2,0,9.9L22.2,30.6
	c-4.3,4.3-11.3,4.3-15.6,0S2.3,19.3,6.6,15l7.8-7.8c0.4-0.4,0.4-1,0-1.4s-1-0.4-1.4,0l-7.8,7.8c-5.1,5.1-5.1,13.3,0,18.4
	s13.3,5.1,18.4,0l16.3-16.3c3.5-3.5,3.5-9.2,0-12.7C36.3-0.5,30.6-0.5,27.1,3z"/>
</svg>
