<?xml version="1.0" encoding="utf-8"?>
<!-- Generator: Adobe Illustrator 18.1.1, SVG Export Plug-In . SVG Version: 6.00 Build 0)  -->
<!DOCTYPE svg PUBLIC "-//W3C//DTD SVG 1.1//EN" "http://www.w3.org/Graphics/SVG/1.1/DTD/svg11.dtd">
<svg version="1.1" xmlns="http://www.w3.org/2000/svg" xmlns:xlink="http://www.w3.org/1999/xlink" x="0px" y="0px" width="14px"
	 height="14px" viewBox="0 0 14 14" style="enable-background:new 0 0 14 14;" xml:space="preserve">
<g id="Layer_1">
</g>
<g id="Layer_2">
</g>
<g id="Layer_3">
</g>
<g id="Layer_4">
	<path d="M13.7,12.3L10,8.6c0.6-0.9,1-2,1-3.1C11,2.5,8.5,0,5.5,0S0,2.5,0,5.5c0,3,2.5,5.5,5.5,5.5c1.2,0,2.2-0.4,3.1-1l3.7,3.7
		c0.2,0.2,0.5,0.3,0.7,0.3s0.5-0.1,0.7-0.3C14.1,13.3,14.1,12.7,13.7,12.3z M2,5.5C2,3.6,3.6,2,5.5,2S9,3.6,9,5.5
		c0,0.8-0.2,1.5-0.7,2C8.1,7.8,7.8,8.1,7.5,8.3C7,8.8,6.3,9,5.5,9C3.6,9,2,7.4,2,5.5z"/>
</g>
</svg>
