<?xml version="1.0" encoding="utf-8"?>
<svg version="1.1" id="Layer_1" xmlns="http://www.w3.org/2000/svg" xmlns:xlink="http://www.w3.org/1999/xlink" x="0px" y="0px"
   viewBox="0 0 45 39" style="enable-background:new 0 0 45 39;" xml:space="preserve">
<style type="text/css">
  .st0{fill:#999;}
</style>
<g>
  <path id="SVGID_5_" class="st0" d="M5.4,34c-5.5-5.5-5.5-14.3,0-19.8l7.8-7.8c0.8-0.8,2-0.8,2.8,0s0.8,2,0,2.8L8.2,17
    c-3.9,3.9-3.9,10.2,0,14.1s10.2,3.9,14.1,0l16.3-16.3c2.3-2.3,2.3-6.1,0-8.5c-2.3-2.3-6.1-2.3-8.5,0L13.9,22.7
    c-0.8,0.8-0.8,2,0,2.8s2,0.8,2.8,0L33,9.3c0.8-0.8,2-0.8,2.8,0s0.8,2,0,2.8L19.5,28.4c-2.3,2.3-6.1,2.3-8.5,0
    c-2.3-2.3-2.3-6.1,0-8.5L27.3,3.6c3.9-3.9,10.2-3.9,14.1,0s3.9,10.2,0,14.1L25.2,34C19.7,39.5,10.8,39.5,5.4,34"/>
</g>
</svg>
