<?xml version="1.0" encoding="utf-8"?>
<svg version="1.1" id="Layer_1" xmlns="http://www.w3.org/2000/svg" xmlns:xlink="http://www.w3.org/1999/xlink" x="0px" y="0px"
	 viewBox="0 0 16.9 16.6" style="enable-background:new 0 0 16.9 16.6;" xml:space="preserve">
<g id="Layer_2_1_">
	<g id="Layer_1-2_1_">
		<path d="M0.5,11.2c0.4,0.5,1,0.8,1.6,0.8l4.4-0.1c-0.1,0.6-0.1,1.2,0,1.8c0.1,0.4,0.2,0.8,0.4,1.1c1,1.6,2,1.9,2.6,1.8
			c0.3-0.1,0.7-0.2,0.9-0.4c0.2-0.2,0.3-0.4,0.3-0.7c0-0.7,0.1-1.4,0.2-2.2c0-0.2,0.1-0.3,0.1-0.5c0.2-0.3,0.3-0.6,0.5-0.8
			c0.6-0.9,1.3-1.7,2-2.5h2.2c0.6,0,1.1-0.5,1.1-1.1c0,0,0,0,0,0V1.8c0-0.6-0.5-1.1-1.1-1.1l0,0h-1.8c-0.4,0-0.8,0.3-1,0.7l-1.4-0.9
			l-0.1,0C10.7,0.1,9.9,0,9.1,0H4.3C3.5,0,2.8,0.4,2.4,1.1C1,2.9,0.1,8.8,0,9.4C-0.1,10,0.1,10.7,0.5,11.2z M14.1,1.9h1.5v6.3h-1.5
			C14.1,8.2,14.1,1.9,14.1,1.9z M3.3,1.8c0.5-0.6,0.8-0.6,0.9-0.6H9c0.6,0,1.3,0.1,1.9,0.4l1.9,1.2l-0.1,5.6
			c-0.8,0.9-1.6,1.8-2.3,2.8c-0.2,0.3-0.4,0.7-0.6,1c-0.1,0.3-0.2,0.6-0.3,0.9c-0.1,0.7-0.1,1.4-0.2,2.1c-0.1,0-0.1,0.1-0.2,0.1
			c-0.4,0-0.9-0.4-1.3-1.2c-0.1-0.2-0.2-0.5-0.2-0.8c-0.1-0.7-0.1-1.4,0.1-2l0.3-0.8l-6,0.1c-0.3,0-0.5-0.1-0.7-0.3
			c-0.2-0.2-0.3-0.5-0.2-0.8C1.5,7.9,2.3,3.2,3.3,1.8L3.3,1.8z"/>
	</g>
</g>
</svg>
