<?xml version="1.0" encoding="UTF-8"?>
<svg width="10px" height="10px" viewBox="0 0 10 10" version="1.1" xmlns="http://www.w3.org/2000/svg" xmlns:xlink="http://www.w3.org/1999/xlink">
    <!-- Generator: Sketch 52.4 (67378) - http://www.bohemiancoding.com/sketch -->
    <title>Group 3</title>
    <desc>Created with Sketch.</desc>
    <defs>
        <polygon id="path-1" points="0.00025 0.00043 9.793 0.00043 9.793 9.79343 0.00025 9.79343"></polygon>
    </defs>
    <g id="Page-1" stroke="none" stroke-width="1" fill="none" fill-rule="evenodd">
        <g id="Group-3">
            <g id="Clip-2"></g>
            <path d="M1.7325,9.47483 L7.8135,3.39383 L7.8135,6.64683 C7.8135,7.21183 8.2375,7.63683 8.8035,7.63683 C9.3685,7.63683 9.7935,7.21183 9.7935,6.64683 L9.7935,0.98983 C9.7935,0.84883 9.7935,0.70683 9.7225,0.63683 C9.5815,0.35383 9.4405,0.21183 9.1565,0.07083 C9.0155,0.07083 8.9445,-0.00017 8.8035,-0.00017 L3.1465,-0.00017 C2.8635,-0.00017 2.6515,0.07083 2.4395,0.28283 C2.2275,0.49483 2.1565,0.70683 2.1565,0.98983 C2.1565,1.55583 2.5815,1.97983 3.1465,1.97983 L6.3995,1.97983 L0.3175,8.06083 C-0.1055,8.48583 -0.1055,9.05083 0.3175,9.47483 C0.7425,9.89983 1.3085,9.89983 1.7325,9.47483" id="Fill-1" fill="#000000" mask="url(#mask-2)"></path>
        </g>
    </g>
</svg>
