<svg xmlns="http://www.w3.org/2000/svg" viewBox="0 0 163.02 74.5"><defs><style>.icls-1{fill:#ccc;}.icls-1,.cls-4{fill:#cccccb;}.cls-2{fill:#f8f8f8;}.cls-3{fill:none;}.cls-4{opacity:0.3;}.cls-5{fill:#30aabc;}.cls-6{fill:#ccc;}</style></defs><title>Asset 6</title><g id="Layer_2" data-name="Layer 2"><g id="Layer_1-2" data-name="Layer 1"><path class="icls-1" d="M110.09,8H79.56a4,4,0,0,0-3.91,4.11V31a4,4,0,0,0,3.91,4.11h4.89v4.32A2.57,2.57,0,0,0,86,41.81a2.45,2.45,0,0,0,1,.2,2.35,2.35,0,0,0,1.63-.66l6.81-6.23h14.73A4,4,0,0,0,114,31V12.11A4,4,0,0,0,110.09,8ZM112,31a2,2,0,0,1-1.9,2.1H94.58l-7.4,6.77a.35.35,0,0,1-.42.08.53.53,0,0,1-.3-.52V33.11h-6.9a2,2,0,0,1-1.9-2.1V12.11a2,2,0,0,1,1.9-2.1h30.53a2,2,0,0,1,1.9,2.1Z"/><path class="cls-2" d="M94.56,64.5h-3c-.87,1.22-1.59,2.15-1.84,2.41A12.69,12.69,0,0,1,81.05,70c-3.7,0-8.54-1.28-14.45-5.48H64.44a5,5,0,0,0,0,10H94.56a5,5,0,0,0,0-10Z"/><path class="cls-3" d="M89.12,54.27c-2-.87-4.78-2-5.52-2.25-.29.13-1.3.75-4.17,3.63-.65.65-1.54,1.54-10.21-6.1l-.1-.1C61.41,40.8,62.45,39.76,63,39.21c2.9-2.92,3.51-3.9,3.63-4.2-.17-.6-1.36-3.41-2.24-5.48-1.26-3-1.91-4.52-2.21-5.41-2.17.43-9.38,3.18-10.68,4.47A8.35,8.35,0,0,0,50,31C52.42,37,64.11,62.79,88.12,64.5h1.06a61.38,61.38,0,0,0,5.09-8.11C93.36,56.06,91.82,55.42,89.12,54.27Z"/><path class="cls-2" d="M89.12,64.58l.06-.08H88.12Z"/><path class="cls-4" d="M88.12,64.5C64.11,62.79,52.42,37,50,31c-1.38,3.12-2.32,9.29,4.32,18.52l0,.09a41.32,41.32,0,0,0,6,6.91l.39.23v.16a40.32,40.32,0,0,0,6.68,5.75l.09.05c1,.69,1.88,1.29,2.77,1.83,11.77,7,17.82,1.26,18.09,1s.48-.54.77-.91Z"/><path class="icls-1" d="M96.43,55.39a1,1,0,0,0-.91-.7c-.52-.1-3.47-1.35-5.62-2.27C85.54,50.56,84.19,50,83.64,50s-1.64.26-5.35,4c-1.1-.44-4.27-2.85-7.71-5.89-2.2-2.47-5.36-6.41-5.87-7.71,3.34-3.39,4-4.54,4-5.37,0-.55-.57-1.89-2.42-6.24-.92-2.16-2.18-5.13-2.27-5.58a1.12,1.12,0,0,0-.73-1c-1.62-.64-11.51,3.37-13.15,5h0a12,12,0,0,0-3,7.33c-.43,4.92,1.46,10.34,5.6,16.11a41.32,41.32,0,0,0,6.05,7.09l.22.23L59,58l.12.08a42,42,0,0,0,7.24,6.22l.24.17C72.51,68.7,77.35,70,81.05,70a12.69,12.69,0,0,0,8.72-3.07c.25-.26,1-1.19,1.84-2.41C93.78,61.47,96.9,56.61,96.43,55.39ZM89.18,64.5l-.06.08c-.29.37-.56.69-.77.91s-6.32,6.06-18.09-1c-.89-.54-1.81-1.14-2.77-1.83l-.09-.05a40.32,40.32,0,0,1-6.68-5.75v-.16l-.39-.23a41.32,41.32,0,0,1-6-6.91l0-.09C47.68,40.25,48.62,34.08,50,31a8.35,8.35,0,0,1,1.51-2.37c1.3-1.29,8.51-4,10.68-4.47.3.89,1,2.46,2.21,5.41.88,2.07,2.07,4.88,2.24,5.48-.12.3-.73,1.28-3.63,4.2-.56.55-1.6,1.59,6.11,10.24l.1.1c8.67,7.64,9.56,6.75,10.21,6.1,2.87-2.88,3.88-3.5,4.17-3.63.74.21,3.48,1.38,5.52,2.25,2.7,1.15,4.24,1.79,5.15,2.12A61.38,61.38,0,0,1,89.18,64.5Z"/><path class="cls-5 customColor" d="M92.33,27.61a.76.76,0,0,0,.53.2.63.63,0,0,0,.47-.2l10-10.71a.65.65,0,0,0,0-.94.64.64,0,0,0-.93,0L92.86,26.14l-4.2-4.76a.66.66,0,0,0-1,.87Z"/><path class="cls-6" d="M35.5,5A2.5,2.5,0,1,1,38,2.5,2.5,2.5,0,0,1,35.5,5Zm0-4A1.5,1.5,0,1,0,37,2.5,1.5,1.5,0,0,0,35.5,1Z"/><path class="cls-6" d="M138.5,32.5a3,3,0,1,1,3-3A3,3,0,0,1,138.5,32.5Zm0-5a2,2,0,1,0,2,2A2,2,0,0,0,138.5,27.5Z"/><path class="icls-1" d="M159,39.5h-1.5V38a1,1,0,0,0-2,0v1.5H154a1,1,0,0,0,0,2h1.5V43a1,1,0,0,0,2,0V41.5H159a1,1,0,0,0,0-2Z"/><path class="icls-1" d="M132.5,6.5h-3v-3a1,1,0,0,0-2,0v3h-3a1,1,0,0,0,0,2h3v3a1,1,0,0,0,2,0v-3h3a1,1,0,0,0,0-2Z"/><path class="icls-1" d="M31.5,26.5h-3v-3a1,1,0,0,0-2,0v3h-3a1,1,0,0,0,0,2h3v3a1,1,0,0,0,2,0v-3h3a1,1,0,0,0,0-2Z"/><circle class="cls-6" cx="161.52" cy="18.4" r="1.5"/><circle class="cls-6" cx="1.5" cy="17.5" r="1.5"/><circle class="cls-6" cx="11.5" cy="45.5" r="2"/></g></g></svg>
