<?xml version="1.0" encoding="utf-8"?>
<!-- Generator: Adobe Illustrator 19.2.0, SVG Export Plug-In . SVG Version: 6.00 Build 0)  -->
<!DOCTYPE svg PUBLIC "-//W3C//DTD SVG 1.1//EN" "http://www.w3.org/Graphics/SVG/1.1/DTD/svg11.dtd">
<svg version="1.1" id="Layer_1" xmlns="http://www.w3.org/2000/svg" xmlns:xlink="http://www.w3.org/1999/xlink" x="0px" y="0px"
	 width="45px" height="39px" viewBox="0 0 45 39" style="enable-background:new 0 0 45 39;" xml:space="preserve">
<style type="text/css">
	.st0{clip-path:url(#SVGID_2_);}
	.st1{clip-path:url(#SVGID_4_);}
	.st2{clip-path:url(#SVGID_6_);}
	.st3{clip-path:url(#SVGID_8_);}
	.st4{clip-path:url(#SVGID_10_);}
	.st5{clip-path:url(#SVGID_12_);}
</style>
<g>
	<defs>
		<path id="SVGID_1_" d="M-35.9,4l-16.3,16.3c-1.9,1.9-1.9,5.1,0,7.1c1.9,1.9,5.1,1.9,7.1,0l4-4l12.3-12.3c0.4-0.4,0.4-1,0-1.4
			c-0.4-0.4-1-0.4-1.4,0l-16.3,16.3c-1.2,1.2-3.1,1.2-4.2,0c-1.2-1.2-1.2-3.1,0-4.2l16.3-16.3c2.7-2.7,7.2-2.7,9.9,0
			c2.7,2.7,2.7,7.2,0,9.9l-16.3,16.3c-4.3,4.3-11.3,4.3-15.6,0s-4.3-11.3,0-15.6l7.8-7.8c0.4-0.4,0.4-1,0-1.4c-0.4-0.4-1-0.4-1.4,0
			l-7.8,7.8c-5.1,5.1-5.1,13.3,0,18.4s13.3,5.1,18.4,0l16.3-16.3c3.5-3.5,3.5-9.2,0-12.7C-26.7,0.5-32.4,0.5-35.9,4z"/>
	</defs>
	<clipPath id="SVGID_2_">
		<use xlink:href="#SVGID_1_"  style="overflow:visible;"/>
	</clipPath>
	<g class="st0">
		<defs>
			<rect id="SVGID_3_" x="-435" y="-216" width="1167" height="466"/>
		</defs>
		<clipPath id="SVGID_4_">
			<use xlink:href="#SVGID_3_"  style="overflow:visible;"/>
		</clipPath>
	</g>
</g>
<g>
	<defs>
		<path id="SVGID_5_" d="M5.4,34c-5.5-5.5-5.5-14.3,0-19.8l7.8-7.8c0.8-0.8,2-0.8,2.8,0c0.8,0.8,0.8,2,0,2.8l-7.8,7.8
			c-3.9,3.9-3.9,10.2,0,14.1s10.2,3.9,14.1,0l16.3-16.3c2.3-2.3,2.3-6.1,0-8.5c-2.3-2.3-6.1-2.3-8.5,0L13.9,22.7
			c-0.8,0.8-0.8,2,0,2.8s2,0.8,2.8,0L33,9.3c0.8-0.8,2-0.8,2.8,0c0.8,0.8,0.8,2,0,2.8L19.5,28.4c-2.3,2.3-6.1,2.3-8.5,0
			c-2.3-2.3-2.3-6.1,0-8.5L27.3,3.6c3.9-3.9,10.2-3.9,14.1,0c3.9,3.9,3.9,10.2,0,14.1L25.2,34C19.7,39.5,10.8,39.5,5.4,34"/>
	</defs>
	<use xlink:href="#SVGID_5_"  style="overflow:visible;fill-rule:evenodd;clip-rule:evenodd;fill:#999999;"/>
	<clipPath id="SVGID_6_">
		<use xlink:href="#SVGID_5_"  style="overflow:visible;"/>
	</clipPath>
	<g class="st2">
		<defs>
			<rect id="SVGID_7_" x="0.5" y="-0.1" width="44" height="39"/>
		</defs>
		<use xlink:href="#SVGID_7_"  style="overflow:visible;fill:#999999;"/>
		<clipPath id="SVGID_8_">
			<use xlink:href="#SVGID_7_"  style="overflow:visible;"/>
		</clipPath>
		<rect x="-6.5" y="-1.6" transform="matrix(0.7071 -0.7071 0.7071 0.7071 -5.8688 20.6563)" class="st3" width="57" height="38"/>
	</g>
</g>
</svg>
