<svg xmlns="http://www.w3.org/2000/svg" viewBox="0 0 17 17"><defs><style>.cls-1{fill:#fff;}</style></defs><title>Asset 2</title><g id="Layer_2" data-name="Layer 2"><g id="Layer_1-2" data-name="Layer 1"><path class="cls-1" d="M2,17a1,1,0,0,1-.95-1.32l1-3A7.12,7.12,0,0,1,0,7.62C0,3.42,3.81,0,8.5,0S17,3.42,17,7.62s-3.81,7.62-8.5,7.62A9.41,9.41,0,0,1,6,14.91l-3.5,2A1,1,0,0,1,2,17ZM8.5,2C4.92,2,2,4.52,2,7.62a5.24,5.24,0,0,0,1.9,4,1,1,0,0,1,.29,1.08l-.4,1.17L5.38,13a1,1,0,0,1,.8-.08,7.35,7.35,0,0,0,2.31.37c3.58,0,6.5-2.52,6.5-5.62S12.08,2,8.5,2Z"/></g></g></svg>