<svg xmlns="http://www.w3.org/2000/svg" viewBox="0 0 88 69">
  <defs>
    <style>.cls-1,.cls-2{fill:#cccccb;}.cls-2{opacity:0.3;}</style>
  </defs>
  <title>Asset 4</title>
  <g id="Layer_2" data-name="Layer 2">
    <g id="Layer_2-2" data-name="Layer 2">
      <path class="cls-1" d="M9.91,14.08H56.59c.75,0,1.36-.44,1.36-1s-.61-1-1.36-1H9.91c-.75,0-1.36.45-1.36,1S9.16,14.08,9.91,14.08Z"/>
      <path class="cls-1" d="M9.91,22.25H56.59c.75,0,1.36-.44,1.36-1s-.61-1-1.36-1H9.91c-.75,0-1.36.45-1.36,1S9.16,22.25,9.91,22.25Z"/><path class="cls-1" d="M31.89,28.42h-22c-.75,0-1.36.45-1.36,1s.61,1,1.36,1h22c.75,0,1.36-.45,1.36-1S32.64,28.42,31.89,28.42Z"/><path class="cls-2" d="M66,39.58A6.3,6.3,0,0,1,59.92,46H48.66v6.06h15a8.81,8.81,0,0,0,8.85-8.78V34.68H66Z"/><path class="cls-1" d="M64,39.5c-.1.55-.19,1.09-.26,1.61A4.82,4.82,0,0,0,64,39.58Z"/><path class="cls-1" d="M83.85,32.68H66V6.44A6.3,6.3,0,0,0,59.92,0H6.12A6.3,6.3,0,0,0,0,6.44V39.58A6.3,6.3,0,0,0,6.12,46h9.39v8.35a3.71,3.71,0,0,0,2.21,3.44,3.38,3.38,0,0,0,3.73-.67L33.66,46h13V57.28a4.25,4.25,0,0,0,4.15,4.33h16l7.38,6.69a2.49,2.49,0,0,0,1.72.7,2.56,2.56,0,0,0,1-.21,2.65,2.65,0,0,0,1.58-2.46V61.61h5.38A4.25,4.25,0,0,0,88,57.28V37A4.25,4.25,0,0,0,83.85,32.68ZM47.66,44H32.88L20.08,55.69a1.41,1.41,0,0,1-1.57.3,1.71,1.71,0,0,1-1-1.61V44H6.12A4.3,4.3,0,0,1,2,39.58V6.44A4.29,4.29,0,0,1,6.12,2h53.8A4.29,4.29,0,0,1,64,6.44V39.58a4.82,4.82,0,0,1-.26,1.53A4.16,4.16,0,0,1,59.92,44H47.66ZM86,57.28a2.25,2.25,0,0,1-2.15,2.34H76.47v6.71a.65.65,0,0,1-.38.63.48.48,0,0,1-.56-.12l-8-7.22H50.81a2.25,2.25,0,0,1-2.15-2.34V46H59.92A6.3,6.3,0,0,0,66,39.58v-4.9H83.85A2.25,2.25,0,0,1,86,37Z"/>
    </g>
  </g>
</svg>
