<?xml version="1.0" encoding="utf-8"?>
<!-- Generator: Adobe Illustrator 18.1.1, SVG Export Plug-In . SVG Version: 6.00 Build 0)  -->
<!DOCTYPE svg PUBLIC "-//W3C//DTD SVG 1.1//EN" "http://www.w3.org/Graphics/SVG/1.1/DTD/svg11.dtd">
<svg version="1.1" xmlns="http://www.w3.org/2000/svg" xmlns:xlink="http://www.w3.org/1999/xlink" x="0px" y="0px" width="20px"
	 height="18px" viewBox="0 0 20 18" style="enable-background:new 0 0 20 18;" xml:space="preserve">
<g id="Layer_1">
</g>
<g id="Layer_2">
</g>
<g id="Layer_3">
</g>
<g id="Layer_4">
	<path d="M16,0H4C1.8,0,0,1.8,0,4v6c0,2.2,1.8,4,4,4h1v3c0,0.4,0.2,0.7,0.6,0.9C5.7,18,5.9,18,6,18c0.2,0,0.4-0.1,0.6-0.2l4.7-3.8
		H16c2.2,0,4-1.8,4-4V4C20,1.8,18.2,0,16,0z M18,10c0,1.1-0.9,2-2,2h-5c-0.2,0-0.4,0.1-0.6,0.2L7,14.9V13c0-0.6-0.4-1-1-1H4
		c-1.1,0-2-0.9-2-2V4c0-1.1,0.9-2,2-2h12c1.1,0,2,0.9,2,2V10z"/>
</g>
</svg>
