<?xml version="1.0" encoding="UTF-8" standalone="no"?>
<svg width="16px" height="16px" viewBox="0 0 16 16" version="1.1" xmlns="http://www.w3.org/2000/svg" xmlns:xlink="http://www.w3.org/1999/xlink" xmlns:sketch="http://www.bohemiancoding.com/sketch/ns">
    <!-- Generator: Sketch 3.4.2 (15855) - http://www.bohemiancoding.com/sketch -->
    <title>field-clear</title>
    <desc>Created with Sketch.</desc>
    <defs></defs>
    <g id="Page-1" stroke="none" stroke-width="1" fill="none" fill-rule="evenodd" sketch:type="MSPage">
        <g id="Artboard-1" sketch:type="MSArtboardGroup" fill="#999999">
            <path d="M11.707,10.293 C12.098,10.684 12.098,11.316 11.707,11.707 C11.512,11.902 11.256,12 11,12 C10.744,12 10.488,11.902 10.293,11.707 L8,9.414 L5.707,11.707 C5.512,11.902 5.256,12 5,12 C4.744,12 4.488,11.902 4.293,11.707 C3.902,11.316 3.902,10.684 4.293,10.293 L6.586,8 L4.293,5.707 C3.902,5.316 3.902,4.684 4.293,4.293 C4.684,3.902 5.316,3.902 5.707,4.293 L8,6.586 L10.293,4.293 C10.684,3.902 11.316,3.902 11.707,4.293 C12.098,4.684 12.098,5.316 11.707,5.707 L9.414,8 L11.707,10.293 Z M8,0 C3.582,0 0,3.582 0,8 C0,12.418 3.582,16 8,16 C12.418,16 16,12.418 16,8 C16,3.582 12.418,0 8,0 L8,0 Z" id="field-clear" sketch:type="MSShapeGroup"></path>
        </g>
    </g>
</svg>