<?xml version="1.0" encoding="UTF-8"?>
<svg width="16px" height="20px" viewBox="0 0 16 20" version="1.1" xmlns="http://www.w3.org/2000/svg" xmlns:xlink="http://www.w3.org/1999/xlink">
    <g stroke="none" stroke-width="1" fill="none" fill-rule="evenodd" transform="translate(-550.000000, -360.000000)" stroke-linejoin="round">
        <g transform="translate(485.000000, 176.000000)" stroke="#999999">
            <g transform="translate(15.000000, 130.000000)">
                <g transform="translate(37.000000, 39.000000)">
                    <g transform="translate(14.000000, 16.000000)">
                        <g>
                            <path d="M-1.6767356e-16,2.05882353 L-1.6767356e-16,16.0505882 C-0.00153478851,16.5989898 0.215524766,17.1253965 0.603150182,17.5133311 C0.990775597,17.9012656 1.51700913,18.1187447 2.06541176,18.1176471 L13.1764706,18.1176471 C13.6310588,18.1176471 14,17.7429412 14,17.2941176 L14,4.94117647 C14,4.48658824 13.6252941,4.11764706 13.1764706,4.11764706 L2.06541176,4.11764706 C1.51810362,4.11983824 0.992484062,3.90384204 0.60485793,3.51745236 C0.217231798,3.13106267 -0.000442586834,2.60613588 5.63766495e-16,2.05882353 C-1.6767356e-16,0.922352941 0.926470588,0 2.05882353,0 L12.3529412,0 C12.8075294,0 13.1764706,0.365647059 13.1764706,0.823529412 L13.1764706,4.11764706 M4.11764706,11.5294118 L10.7058824,11.5294118 M4.11764706,8.23529412 L10.7058824,8.23529412" stroke-width="1.25"></path>
                        </g>
                    </g>
                </g>
            </g>
        </g>
    </g>
</svg>
