<svg xmlns="http://www.w3.org/2000/svg" width="16" height="16" viewBox="0 0 16 16">
  <path d="M1.0487928,0.596812159 C1.69010639,-0.0434473754 3.62439875,-0.150103513 3.63944091,0.188582163 C3.6538361,0.527106484 5.38222879,4.28233837 5.39759443,4.6208627 C5.41231311,4.95954837 4.25762516,6.11356455 3.91990441,6.45176616 C3.58541853,6.7865793 6.17833105,9.71679934 6.22733938,9.771983 C6.28314094,9.82135785 9.21361247,12.4145058 9.54826009,12.0801767 C9.8858191,11.7418137 11.0403453,10.5876362 11.3788748,10.6026423 C11.7174042,10.6176484 15.4729302,12.3457682 15.8116214,12.3604516 C16.1499891,12.3759418 16.0435618,14.3097902 15.4025717,14.9508565 C14.8555546,15.4978524 12.0206736,17.4852709 7.09088875,13.9365744 C6.55017972,13.6254805 5.69374707,12.9119655 4.39559249,11.6146654 C4.39446029,11.6138587 4.39397506,11.6133746 4.39365157,11.6127292 C4.39187239,11.611761 4.39171065,11.6107929 4.3904167,11.6096634 C4.38960798,11.6086953 4.38847577,11.6078885 4.38750531,11.6065976 C4.38653485,11.6057909 4.38540264,11.6048227 4.38443218,11.6038546 C3.08692459,10.3059091 2.37395856,9.4494329 2.063249,8.90937527 C-1.48508329,3.97947367 0.502099245,1.14429215 1.0487928,0.596812159 Z"/>
</svg>
