<?xml version="1.0" encoding="utf-8"?>
<svg version="1.1" id="Layer_1" xmlns="http://www.w3.org/2000/svg" xmlns:xlink="http://www.w3.org/1999/xlink" x="0px" y="0px"
	 viewBox="0 0 16.9 16.6" style="enable-background:new 0 0 16.9 16.6;" xml:space="preserve">
<g id="Layer_2">
	<g id="Layer_1-2">
		<path d="M16.4,5.4c-0.4-0.5-1-0.8-1.6-0.8l-4.4,0.1c0.1-0.6,0.1-1.2,0-1.8c-0.1-0.4-0.2-0.8-0.4-1.1C9,0.2,8-0.1,7.3,0
			C7,0.1,6.7,0.2,6.4,0.4C6.2,0.6,6.1,0.9,6.1,1.1c0,0.7-0.1,1.4-0.2,2.2c0,0.2-0.1,0.3-0.1,0.5C5.6,4.1,5.5,4.3,5.3,4.6
			C4.7,5.5,4,6.3,3.3,7.1H1.1C0.5,7.1,0,7.6,0,8.2c0,0,0,0,0,0v6.5c0,0.6,0.5,1.1,1.1,1.1l0,0h1.8c0.4,0,0.8-0.3,1-0.7l1.4,0.9
			l0.1,0c0.8,0.3,1.6,0.5,2.4,0.5h4.8c0.8,0,1.5-0.5,1.9-1.1c1.4-1.8,2.2-7.7,2.3-8.3C16.9,6.6,16.8,5.9,16.4,5.4z M2.8,14.7H1.2
			V8.4h1.5C2.8,8.4,2.8,14.7,2.8,14.7z M13.5,14.8c-0.5,0.6-0.8,0.6-0.9,0.6H7.8c-0.6,0-1.3-0.1-1.9-0.4L4,13.8l0.1-5.6
			c0.8-0.9,1.6-1.8,2.3-2.8c0.2-0.3,0.4-0.7,0.6-1c0.1-0.3,0.2-0.6,0.3-0.9C7.3,2.8,7.3,2,7.4,1.3c0.1,0,0.1-0.1,0.2-0.1
			c0.4,0,0.9,0.4,1.3,1.2C9,2.7,9,2.9,9.1,3.2c0.1,0.7,0.1,1.4-0.1,2L8.7,6l6-0.1c0.3,0,0.5,0.1,0.7,0.3c0.2,0.2,0.3,0.5,0.2,0.8
			C15.4,8.7,14.5,13.4,13.5,14.8L13.5,14.8z"/>
	</g>
</g>
</svg>
