<?xml version="1.0" encoding="utf-8"?>
<!-- Generator: Adobe Illustrator 19.2.1, SVG Export Plug-In . SVG Version: 6.00 Build 0)  -->
<svg version="1.1" id="Layer_1" xmlns="http://www.w3.org/2000/svg" xmlns:xlink="http://www.w3.org/1999/xlink" x="0px" y="0px"
	 viewBox="0 0 18 22" style="enable-background:new 0 0 18 22;" xml:space="preserve">
<style type="text/css">
	.st0{fill:#78A300;}
</style>
<title>article-icon</title>
<desc>Created with Sketch.</desc>
<g id="Page-1">
	<g id="Article---maximised" transform="translate(-194.000000, -19.000000)">
		<g id="article-icon" transform="translate(195.000000, 20.000000)">
			<path class="st0" d="M14,21H2c-1.7,0-3-1.3-3-3V2c0-1.7,1.3-3,3-3h12c1.7,0,3,1.3,3,3v16C17,19.7,15.7,21,14,21z M2,1
				C1.4,1,1,1.4,1,2v16c0,0.6,0.4,1,1,1h12c0.6,0,1-0.4,1-1V2c0-0.6-0.4-1-1-1H2z"/>
			<path id="Rectangle-2" class="st0" d="M4,5h8c0.6,0,1,0.4,1,1l0,0c0,0.6-0.4,1-1,1H4C3.4,7,3,6.6,3,6l0,0C3,5.4,3.4,5,4,5z"/>
			<path id="Rectangle-2-Copy" class="st0" d="M4,9h8c0.6,0,1,0.4,1,1l0,0c0,0.6-0.4,1-1,1H4c-0.6,0-1-0.4-1-1l0,0C3,9.4,3.4,9,4,9z
				"/>
			<path id="Rectangle-2-Copy-2" class="st0" d="M4,13h4c0.6,0,1,0.4,1,1l0,0c0,0.6-0.4,1-1,1H4c-0.6,0-1-0.4-1-1l0,0
				C3,13.4,3.4,13,4,13z"/>
		</g>
	</g>
</g>
</svg>
