<?xml version="1.0" encoding="UTF-8" standalone="no"?>
<svg width="15px" height="15px" viewBox="0 0 15 15" version="1.1" xmlns="http://www.w3.org/2000/svg" xmlns:xlink="http://www.w3.org/1999/xlink">
    <!-- Generator: Sketch 47.1 (45422) - http://www.bohemiancoding.com/sketch -->
    <title>Group</title>
    <desc>Created with Sketch.</desc>
    <defs></defs>
    <g id="Chat-&amp;-Help-Center-widgets" stroke="none" stroke-width="1" fill="none" fill-rule="evenodd">
        <g id="Chat-widget---2" transform="translate(-296.000000, -651.000000)">
            <g id="Chat-unification---Active-chat-&amp;-hover-type-area" transform="translate(50.000000, 68.000000)">
                <g id="type-area" transform="translate(0.000000, 480.000000)">
                    <g id="Group" transform="translate(247.000000, 104.000000)">
                        <path d="M9,1.5 L9,3.5 L8,3.5 L8,2 L5,2 C4.724,2 4.5,1.776 4.5,1.5 C4.5,1.224 4.724,1 5,1 L7.5,1 L8.5,1 C8.776,1 9,1.224 9,1.5 Z M9,3.5 C9,3.776 8.776,4 8.5,4 C8.224,4 8,3.776 8,3.5 L9,3.5 Z" id="Combined-Shape" fill="#999999"></path>
                        <path d="M11.8221115,4.14018692 C11.6338366,3.95327103 11.3302915,3.95327103 11.1429772,4.14018692 C10.9547024,4.32614915 10.9547024,4.62845699 11.1429772,4.81441923 L12.3600396,6.02365058 L6.48029298,6.02365058 C6.21517125,6.02365058 6,6.23631509 6,6.50047683 C6,6.76368491 6.21517125,6.97730307 6.48029298,6.97730307 L12.3600396,6.97730307 L11.1429772,8.18558077 C10.9547024,8.37249666 10.9547024,8.67385085 11.1429772,8.85981308 C11.3302915,9.04672897 11.6338366,9.04672897 11.8221115,8.85981308 L13.8595143,6.83711615 C14.0468286,6.65115392 14.0468286,6.34884608 13.8595143,6.16288385 L11.8221115,4.14018692 Z" id="Fill-5" fill="#999999"></path>
                        <path d="M8,9.5 L9,9.5 L9,11.5 C9,11.776 8.776,12 8.5,12 L5,12 C4.724,12 4.5,11.776 4.5,11.5 C4.5,11.224 4.724,11 5,11 L8,11 L8,9.5 Z M9,9.5 L8,9.5 C8,9.224 8.224,9 8.5,9 C8.776,9 9,9.224 9,9.5 Z" id="Combined-Shape" fill="#999999"></path>
                        <path d="M4.5,13.7341727 L-0.5,11.7659059 L-0.5,1.23299271 L4.5,-0.733998416 L4.5,13.7341727 Z" id="Stroke-4" stroke="#999999" stroke-linecap="round" stroke-linejoin="round"></path>
                    </g>
                </g>
            </g>
        </g>
    </g>
</svg>