<?xml version="1.0" encoding="UTF-8" standalone="no"?>
<svg width="1002px" height="1002px" viewBox="0 0 1002 1002" version="1.1" xmlns="http://www.w3.org/2000/svg" xmlns:xlink="http://www.w3.org/1999/xlink">
    <!-- Generator: Sketch 47.1 (45422) - http://www.bohemiancoding.com/sketch -->
    <title>G+ (Rounded Rectangle)</title>
    <desc>Created with Sketch.</desc>
    <defs></defs>
    <g id="Page-1" stroke="none" stroke-width="1" fill="none" fill-rule="evenodd">
        <g id="zopim_mervyn_width_nokern_edited20-(2)" transform="translate(0.000000, -48.000000)" fill-rule="nonzero" stroke="#979797" fill="#000000">
            <g id="G+-(Rounded-Rectangle)" transform="translate(1.000000, 49.000000)">
                <g id="Page-1-5">
                    <path d="M0,120.00219 C0,53.726809 53.720095,0 120.00219,0 L879.99781,0 C946.27319,0 1000,53.720095 1000,120.00219 L1000,879.99781 C1000,946.27319 946.2799,1000 879.99781,1000 L120.00219,1000 C53.726809,1000 0,946.2799 0,879.99781 L0,120.00219 Z M930,465.375 L840.52083,465.375 L840.52083,378.8125 L768.9375,378.8125 L768.9375,465.375 L679.45833,465.375 L679.45833,534.625 L768.9375,534.625 L768.9375,621.1875 L840.52083,621.1875 L840.52083,534.625 L930,534.625 L930,465.375 Z M357.33333,448.0625 L357.33333,556.0925 L513.385,556.0925 C501.39479,621.1875 443.05437,668.62375 357.33333,668.62375 C262.84333,668.62375 186.07021,591.23688 186.07021,499.82687 C186.07021,408.41687 262.84333,331.20312 357.33333,331.20312 C399.92542,331.20312 438.04354,345.39938 468.10854,373.09937 L468.10854,373.2725 L548.81875,295.19312 C499.24729,250.52687 434.64333,223 357.33333,223 C199.13417,223 71,346.9575 71,500 C71,653.0425 199.13417,777 357.33333,777 C522.69083,777 632.21333,664.46875 632.21333,506.2325 C632.21333,485.97687 630.24479,466.58688 626.66562,448.0625 L357.33333,448.0625 Z" id="Rectangle-1"></path>
                </g>
            </g>
        </g>
    </g>
</svg>
