<?xml version="1.0" encoding="utf-8"?>
<svg version="1.1" id="Layer_1" xmlns="http://www.w3.org/2000/svg" xmlns:xlink="http://www.w3.org/1999/xlink" x="0px" y="0px"
	 viewBox="0 0 14 11" style="enable-background:new 0 0 14 11;" xml:space="preserve">
<g id="Layer_2">
	<g id="Layer_1-2">
		<path d="M7,11c-0.2,0-0.4-0.1-0.6-0.2L3.2,8.2H1c-0.6,0-1-0.4-1-1V3.7c0-0.6,0.4-1,1-1h2.2l3.2-2.5C6.7,0,7.1,0,7.4,0.1
			C7.8,0.3,8,0.6,8,1v9C8,10.6,7.6,11,7,11z M1.1,7.1h2.2c0.2,0,0.4,0.1,0.6,0.2l3,2.4V1.3l-3,2.4C3.7,3.8,3.5,3.9,3.3,3.9H1.1V7.1z
			 M3.3,8.2L3.3,8.2z"/>
		<path d="M12.6,10c-0.1,0-0.2,0-0.3-0.1c-0.3-0.2-0.4-0.5-0.2-0.8c0.5-1.1,0.8-2.4,0.8-3.6c0-1.3-0.2-2.5-0.8-3.6
			c-0.1-0.3,0-0.6,0.2-0.8c0.3-0.1,0.6,0,0.8,0.2c0,0,0,0,0,0C13.7,2.6,14,4.1,14,5.5c0,1.4-0.3,2.9-0.9,4.2C13,9.9,12.8,10,12.6,10
			z"/>
		<path d="M9.9,8.5c-0.1,0-0.3,0-0.4-0.1C9.3,8.2,9.2,7.9,9.4,7.6c0,0,0,0,0,0c0.5-0.6,0.7-1.3,0.7-2.1c0-0.8-0.2-1.5-0.7-2.1
			C9.2,3.2,9.3,2.8,9.5,2.6c0,0,0,0,0,0c0.3-0.2,0.6-0.2,0.8,0.1c0.6,0.8,1,1.8,1,2.8c0,1-0.4,2-1,2.8C10.2,8.4,10.1,8.5,9.9,8.5z"
			/>
	</g>
</g>
</svg>
