<?xml version="1.0" encoding="UTF-8"?>
<svg width="24px" height="24px" viewBox="0 0 24 24" version="1.1" xmlns="http://www.w3.org/2000/svg" xmlns:xlink="http://www.w3.org/1999/xlink">
    <title>662C890B-9D7B-44D4-B944-4CB5705F0F6F@1x</title>
    <g id="âš›ï¸-symbols" stroke="none" stroke-width="1" fill="none" fill-rule="evenodd">
        <g id="icon/arrow-down" fill="#212B35">
            <path d="M19.7071068,11.2928932 C20.0675907,11.6533772 20.0953203,12.2206082 19.7902954,12.6128994 L19.7071068,12.7071068 L12.7071068,19.7071068 L12.663147,19.7485042 L12.663147,19.7485042 L12.5953066,19.8036654 L12.5953066,19.8036654 L12.4840621,19.8753288 L12.4840621,19.8753288 L12.371336,19.9287745 L12.371336,19.9287745 L12.265993,19.9641549 L12.265993,19.9641549 L12.1484669,19.9889822 L12.1484669,19.9889822 L12.0592601,19.9982536 L12.0592601,19.9982536 L11.9407123,19.9982536 L11.9407123,19.9982536 L11.8825374,19.9931674 L11.8825374,19.9931674 L11.7664859,19.9725773 L11.7664859,19.9725773 L11.6583335,19.9401054 L11.6583335,19.9401054 L11.5767785,19.9063266 L11.5767785,19.9063266 L11.4792912,19.8540045 L11.4792912,19.8540045 L11.374551,19.7803112 L11.374551,19.7803112 L11.2928932,19.7071068 L4.29289322,12.7071068 C3.90236893,12.3165825 3.90236893,11.6834175 4.29289322,11.2928932 C4.65337718,10.9324093 5.22060824,10.9046797 5.61289944,11.2097046 L5.70710678,11.2928932 L11,16.585 L11,5 C11,4.48716416 11.3860402,4.06449284 11.8833789,4.00672773 L12,4 C12.5128358,4 12.9355072,4.38604019 12.9932723,4.88337887 L13,5 L13,16.585 L18.2928932,11.2928932 C18.6533772,10.9324093 19.2206082,10.9046797 19.6128994,11.2097046 L19.7071068,11.2928932 Z" id="â†ªðŸŽ¨Color"></path>
        </g>
    </g>
</svg>