<?xml version="1.0" encoding="utf-8"?>
<svg version="1.1" id="Layer_1" xmlns="http://www.w3.org/2000/svg" xmlns:xlink="http://www.w3.org/1999/xlink" x="0px" y="0px"
	 viewBox="0 0 14 11" style="enable-background:new 0 0 14 11;" xml:space="preserve">
<g id="Layer_2">
	<g id="Layer_1-2">
		<path d="M7,11c-0.2,0-0.4-0.1-0.6-0.2L3.2,8.2H1c-0.6,0-1-0.4-1-1V3.7c0-0.6,0.4-1,1-1h2.2l3.2-2.5C6.7,0,7.1,0,7.4,0.1
			C7.8,0.3,8,0.6,8,1v9C8,10.6,7.6,11,7,11z M1.1,7.1h2.2c0.2,0,0.4,0.1,0.6,0.2l3,2.4V1.3l-3,2.4C3.7,3.8,3.5,3.9,3.3,3.9H1.1V7.1z
			 M3.3,8.2L3.3,8.2z"/>
		<path d="M12.6,5.5l1.2-1.2c0.2-0.2,0.2-0.6,0-0.9s-0.6-0.2-0.9,0l-1.2,1.2l-1.2-1.2c-0.2-0.2-0.6-0.2-0.9,0S9.4,4,9.6,4.2l0,0
			l1.2,1.2L9.6,6.7c-0.2,0.2-0.2,0.6,0,0.9s0.6,0.2,0.9,0l0,0l1.2-1.2l1.2,1.2c0.2,0.2,0.6,0.2,0.9,0s0.2-0.6,0-0.9l0,0L12.6,5.5z"
			/>
	</g>
</g>
</svg>
