<?xml version="1.0" encoding="UTF-8" standalone="no"?>
<svg width="1000px" height="1000px" viewBox="0 0 1000 1000" version="1.1" xmlns="http://www.w3.org/2000/svg" xmlns:xlink="http://www.w3.org/1999/xlink">
    <!-- Generator: Sketch 47.1 (45422) - http://www.bohemiancoding.com/sketch -->
    <title>Facebook (Rounded Rectangle)</title>
    <desc>Created with Sketch.</desc>
    <defs></defs>
    <g id="Page-1" stroke="none" stroke-width="1" fill="none" fill-rule="evenodd">
        <g id="zopim_mervyn_width_nokern_edited20-(2)" transform="translate(-1.000000, -49.000000)" fill-rule="nonzero" fill="#000000">
            <g id="Facebook-(Rounded-Rectangle)" transform="translate(1.000000, 49.000000)">
                <path d="M875,0 L125,0 C56.25,0 0,56.25 0,125 L0,875 C0,943.75 56.25,1000 125,1000 L875,1000 C943.75,1000 1000,943.75 1000,875 L1000,125 C1000,56.25 943.75,0 875,0 Z M824.875,562.5 L687.5,562.5 L687.5,937.5 L562.5,937.5 L562.5,562.5 L437.5,562.5 L437.5,437.5 L562.5,437.5 C562.5,437.5 562.5,382.125 562.5,323.375 C562.5,234.5 605,152.875 737.313,152.875 C790.751,152.875 830.438,158.063 830.438,158.063 L827.25,281.626 C827.25,281.626 786.875,281.251 742.75,281.251 C695,281.251 687.375,303.251 687.375,339.751 C687.375,345.189 687.375,346.376 687.375,345.876 C687.375,355.814 687.375,375.064 687.375,437.564 L831,437.564 L824.875,562.5 Z" id="path3614"></path>
            </g>
        </g>
    </g>
</svg>
